<svg width="50" height="50" viewBox="0 0 50 50" fill="none" xmlns="http://www.w3.org/2000/svg">
<path d="M0 4C0 1.79086 1.79086 0 4 0H46C48.2091 0 50 1.79086 50 4V46C50 48.2091 48.2091 50 46 50H4C1.79086 50 0 48.2091 0 46V4Z" fill="#49BBBD"/>
<path d="M29.5 25.7969C29.9219 25.375 29.9219 24.6719 29.5 24.2031L23.125 17.8281C22.6562 17.4062 21.9531 17.4062 21.5312 17.8281L20.4531 18.9062C20.0312 19.375 20.0312 20.0781 20.4531 20.5L25 25.0469L20.4531 29.5469C20.0312 29.9688 20.0312 30.6719 20.4531 31.1406L21.5312 32.1719C21.9531 32.6406 22.6562 32.6406 23.125 32.1719L29.5 25.7969Z" fill="white"/>
</svg>
