<svg width="194" height="69" viewBox="0 0 194 69" fill="none" xmlns="http://www.w3.org/2000/svg">
<path d="M11.032 68H17.08V1.75999H0.568V7.424H11.032V68ZM57.5815 24.8C50.9575 24.8 45.1015 27.008 41.1655 31.136V7.424H72.9415V1.75999H35.8855V37.664H41.0695C44.6215 33.056 50.0935 30.464 56.3335 30.464C67.0855 30.464 72.3655 37.952 72.3655 46.592C72.3655 54.752 67.2775 62.912 56.2375 62.912C48.6535 62.912 41.3575 58.88 38.5735 51.68L33.0055 54.464C37.1335 63.968 46.3495 68.576 55.7575 68.576C70.7335 68.576 78.6055 57.728 78.6055 46.208C78.6055 35.36 71.9815 24.8 57.5815 24.8ZM92.698 0.799995V68H98.938V34.976L132.538 68H141.658L106.138 33.536L139.834 0.799995H131.002L98.938 32.576V0.799995H92.698ZM174.316 30.752H193.42V37.568H174.316V57.344H167.404V37.568H148.3V30.752H167.404V10.88H174.316V30.752Z" fill="url(#paint0_linear_12_423)"/>
<defs>
<linearGradient id="paint0_linear_12_423" x1="-5" y1="82" x2="199" y2="82" gradientUnits="userSpaceOnUse">
<stop stop-color="#136CB5"/>
<stop offset="1" stop-color="#49BBBD"/>
</linearGradient>
</defs>
</svg>
