<svg width="81" height="69" viewBox="0 0 81 69" fill="none" xmlns="http://www.w3.org/2000/svg">
<path d="M10.532 68H16.58V1.75999H0.0680002V7.424H10.532V68ZM80.3135 46.208C80.3135 33.056 71.2895 24.608 59.0975 24.608C50.0735 24.608 40.9535 29.504 38.4575 38.336C38.7455 17.312 51.8015 6.56 71.8655 6.368L71.6735 0.799995C47.9615 0.799995 32.5055 15.488 32.5055 38.528C32.5055 59.456 45.2735 68.576 57.8495 68.576C69.5615 68.576 80.3135 60.704 80.3135 46.208ZM40.7615 46.4C40.7615 35.936 49.2095 30.272 57.6575 30.272C66.0095 30.272 74.0735 35.648 74.0735 46.4C74.0735 55.712 68.0255 62.912 57.7535 62.912C47.5775 62.912 40.7615 55.808 40.7615 46.4Z" fill="url(#paint0_linear_12_435)"/>
<defs>
<linearGradient id="paint0_linear_12_435" x1="-5.5" y1="82" x2="86.5" y2="82" gradientUnits="userSpaceOnUse">
<stop stop-color="#136CB5"/>
<stop offset="1" stop-color="#49BBBD"/>
</linearGradient>
</defs>
</svg>
