<svg width="104" height="69" viewBox="0 0 104 69" fill="none" xmlns="http://www.w3.org/2000/svg">
<path d="M8.652 62.336L30.54 42.176C35.148 37.952 42.444 30.752 42.444 19.904C42.444 7.51999 33.036 0.799995 22.572 0.799995C11.916 0.799995 1.26 7.51999 0.108 21.728L5.964 22.304C6.732 11.456 14.412 6.56 21.996 6.56C29.484 6.56 36.204 11.168 36.204 20.384C36.204 29.696 29.004 36.416 24.588 40.544L1.164 62.432V68H45.324V62.336H8.652ZM103.345 46.208C103.345 33.056 94.3208 24.608 82.1288 24.608C73.1048 24.608 63.9848 29.504 61.4888 38.336C61.7768 17.312 74.8328 6.56 94.8968 6.368L94.7048 0.799995C70.9928 0.799995 55.5368 15.488 55.5368 38.528C55.5368 59.456 68.3048 68.576 80.8808 68.576C92.5928 68.576 103.345 60.704 103.345 46.208ZM63.7928 46.4C63.7928 35.936 72.2408 30.272 80.6888 30.272C89.0408 30.272 97.1048 35.648 97.1048 46.4C97.1048 55.712 91.0568 62.912 80.7848 62.912C70.6088 62.912 63.7928 55.808 63.7928 46.4Z" fill="url(#paint0_linear_12_432)"/>
<defs>
<linearGradient id="paint0_linear_12_432" x1="-4.5" y1="82" x2="109.5" y2="82" gradientUnits="userSpaceOnUse">
<stop stop-color="#136CB5"/>
<stop offset="1" stop-color="#49BBBD"/>
</linearGradient>
</defs>
</svg>
