<svg width="101" height="69" viewBox="0 0 101 69" fill="none" xmlns="http://www.w3.org/2000/svg">
<path d="M26.26 33.536C35.092 31.136 40.948 24.32 40.948 16.352C40.948 6.56 32.212 0.799995 22.42 0.799995C14.644 0.799995 6.484 4.44799 1.972 12.128L6.292 15.104C10.036 9.248 16.18 6.464 21.94 6.464C28.756 6.464 34.612 10.112 34.612 17.504C34.612 25.952 27.028 31.232 15.028 31.232V36.608H17.332C30.388 36.608 37.684 42.272 37.684 50.624C37.684 58.592 30.772 62.912 22.996 62.912C16.18 62.912 9.556 59.648 5.716 51.872L0.148 55.136C5.044 64.352 14.164 68.576 22.708 68.576C33.748 68.576 43.924 61.664 43.924 50.24C43.924 40.928 36.916 35.168 26.26 33.536ZM79.6128 24.8C72.9888 24.8 67.1328 27.008 63.1968 31.136V7.424H94.9728V1.75999H57.9168V37.664H63.1008C66.6528 33.056 72.1248 30.464 78.3648 30.464C89.1168 30.464 94.3968 37.952 94.3968 46.592C94.3968 54.752 89.3088 62.912 78.2688 62.912C70.6848 62.912 63.3888 58.88 60.6048 51.68L55.0368 54.464C59.1648 63.968 68.3808 68.576 77.7888 68.576C92.7648 68.576 100.637 57.728 100.637 46.208C100.637 35.36 94.0128 24.8 79.6128 24.8Z" fill="url(#paint0_linear_12_429)"/>
<defs>
<linearGradient id="paint0_linear_12_429" x1="-3.5" y1="82" x2="106.5" y2="82" gradientUnits="userSpaceOnUse">
<stop stop-color="#136CB5"/>
<stop offset="1" stop-color="#49BBBD"/>
</linearGradient>
</defs>
</svg>
