<svg width="188" height="71" viewBox="0 0 188 71" fill="none" xmlns="http://www.w3.org/2000/svg">
<path d="M11.576 70H18.392L48.152 9.424V3.75999H0.92V9.51999H41.912L11.576 70ZM81.1753 26.8C74.5513 26.8 68.6953 29.008 64.7593 33.136V9.424H96.5353V3.75999H59.4793V39.664H64.6633C68.2153 35.056 73.6873 32.464 79.9273 32.464C90.6793 32.464 95.9593 39.952 95.9593 48.592C95.9593 56.752 90.8713 64.912 79.8313 64.912C72.2473 64.912 64.9513 60.88 62.1673 53.68L56.5993 56.464C60.7273 65.968 69.9433 70.576 79.3513 70.576C94.3273 70.576 102.199 59.728 102.199 48.208C102.199 37.36 95.5753 26.8 81.1753 26.8ZM131.314 0.495996C135.986 0.495996 139.538 2.384 141.97 6.16C144.466 9.872 145.714 15.12 145.714 21.904C145.714 28.688 144.53 34 142.162 37.84C139.858 41.616 136.242 43.504 131.314 43.504C126.77 43.504 123.282 41.616 120.85 37.84C118.482 34 117.298 28.688 117.298 21.904C117.298 15.12 118.418 9.872 120.658 6.16C122.898 2.384 126.45 0.495996 131.314 0.495996ZM175.186 1.456L137.17 70H129.778L167.794 1.456H175.186ZM131.314 6.44799C128.882 6.44799 127.09 7.75999 125.938 10.384C124.85 12.944 124.306 16.784 124.306 21.904C124.306 27.024 124.85 30.896 125.938 33.52C127.09 36.144 128.882 37.456 131.314 37.456C136.242 37.456 138.706 32.272 138.706 21.904C138.706 11.6 136.242 6.44799 131.314 6.44799ZM173.266 27.952C177.938 27.952 181.49 29.84 183.922 33.616C186.418 37.328 187.666 42.576 187.666 49.36C187.666 56.144 186.482 61.456 184.114 65.296C181.81 69.072 178.194 70.96 173.266 70.96C168.722 70.96 165.234 69.072 162.802 65.296C160.434 61.456 159.25 56.144 159.25 49.36C159.25 42.576 160.37 37.328 162.61 33.616C164.85 29.84 168.402 27.952 173.266 27.952ZM173.266 34C170.834 34 169.042 35.28 167.89 37.84C166.802 40.4 166.258 44.24 166.258 49.36C166.258 54.544 166.802 58.448 167.89 61.072C169.042 63.632 170.834 64.912 173.266 64.912C178.194 64.912 180.658 59.728 180.658 49.36C180.658 39.12 178.194 34 173.266 34Z" fill="url(#paint0_linear_12_426)"/>
<defs>
<linearGradient id="paint0_linear_12_426" x1="-1" y1="84" x2="193" y2="84" gradientUnits="userSpaceOnUse">
<stop stop-color="#136CB5"/>
<stop offset="1" stop-color="#49BBBD"/>
</linearGradient>
</defs>
</svg>
